HIERARCHY
ROOT newVegas:Hips
{
	OFFSET 0.000000 96.479958 0.000000
	CHANNELS 6 Xposition Yposition Zposition Xrotation Yrotation Zrotation
	JOINT newVegas:Pelvis
	{
		OFFSET 0.000000 0.000000 0.000000
		CHANNELS 3 Xrotation Yrotation Zrotation
		JOINT newVegas:LeftUpLeg
		{
			OFFSET 18.735201 -5.666702 -4.541200
			CHANNELS 3 Xrotation Yrotation Zrotation
			JOINT newVegas:LeftLeg
			{
				OFFSET -0.021200 -31.938179 0.493100
				CHANNELS 3 Xrotation Yrotation Zrotation
				JOINT newVegas:LeftFoot
				{
					OFFSET 0.021200 -31.938179 -4.336299
					CHANNELS 3 Xrotation Yrotation Zrotation
					JOINT newVegas:LeftToeBase
					{
						OFFSET 0.943001 -26.722000 15.023500
						CHANNELS 3 Xrotation Yrotation Zrotation
						End Site
						{
							OFFSET 0.000000 30.670183 0.000000
						}
					}
				}
				JOINT newVegas:Left_PantLeg
				{
					OFFSET 0.663870 -9.044666 -1.108900
					CHANNELS 3 Xrotation Yrotation Zrotation
					End Site
					{
						OFFSET 1.415995 20.635357 0.000000
					}
				}
			}
		}
		JOINT newVegas:RightUpLeg
		{
			OFFSET -18.735201 -5.666702 -4.541200
			CHANNELS 3 Xrotation Yrotation Zrotation
			JOINT newVegas:RightLeg
			{
				OFFSET 0.018946 -31.938133 0.493100
				CHANNELS 3 Xrotation Yrotation Zrotation
				JOINT newVegas:RightFoot
				{
					OFFSET -0.018946 -31.938126 -4.336299
					CHANNELS 3 Xrotation Yrotation Zrotation
					JOINT newVegas:RightToeBase
					{
						OFFSET -0.943001 -26.722004 15.023500
						CHANNELS 3 Xrotation Yrotation Zrotation
						End Site
						{
							OFFSET 0.000000 30.670187 0.000000
						}
					}
				}
				JOINT newVegas:Right_PantLeg
				{
					OFFSET -0.661674 -9.044716 -1.108900
					CHANNELS 3 Xrotation Yrotation Zrotation
					End Site
					{
						OFFSET -1.415958 20.635269 0.000000
					}
				}
			}
		}
	}
	JOINT newVegas:Spine
	{
		OFFSET 0.000000 10.199997 -0.299500
		CHANNELS 3 Xrotation Yrotation Zrotation
		JOINT newVegas:Spine1
		{
			OFFSET 0.000000 11.900002 -1.516600
			CHANNELS 3 Xrotation Yrotation Zrotation
			JOINT newVegas:Spine2
			{
				OFFSET 0.000000 13.600006 -2.842500
				CHANNELS 3 Xrotation Yrotation Zrotation
				JOINT newVegas:Neck
				{
					OFFSET 0.000000 9.624100 -2.890100
					CHANNELS 3 Xrotation Yrotation Zrotation
					JOINT newVegas:Head
					{
						OFFSET 0.000000 14.068802 -1.351900
						CHANNELS 3 Xrotation Yrotation Zrotation
						JOINT newVegas:Hair_Back
						{
							OFFSET 0.000000 3.231903 -17.524799
							CHANNELS 3 Xrotation Yrotation Zrotation
							End Site
							{
								OFFSET 0.000000 19.849884 0.000000
							}
						}
						JOINT newVegas:Hair_Front
						{
							OFFSET 0.000000 31.260406 4.573800
							CHANNELS 3 Xrotation Yrotation Zrotation
							JOINT newVegas:Hair_Front1
							{
								OFFSET 0.000000 2.284103 11.993300
								CHANNELS 3 Xrotation Yrotation Zrotation
								JOINT newVegas:Hair_Front2
								{
									OFFSET 0.000000 2.284103 11.993300
									CHANNELS 3 Xrotation Yrotation Zrotation
									End Site
									{
										OFFSET 0.000000 12.208862 0.000000
									}
								}
							}
						}
						JOINT newVegas:Jowel
						{
							OFFSET 0.000000 -7.458206 6.864100
							CHANNELS 3 Xrotation Yrotation Zrotation
							End Site
							{
								OFFSET 0.000000 19.849884 0.000000
							}
						}
					}
				}
				JOINT newVegas:LeftShoulder
				{
					OFFSET 15.263000 10.923401 -0.547700
					CHANNELS 3 Xrotation Yrotation Zrotation
					JOINT newVegas:LeftArm
					{
						OFFSET 25.438599 -2.830597 -13.032500
						CHANNELS 3 Xrotation Yrotation Zrotation
						JOINT newVegas:LeftForeArm
						{
							OFFSET 29.960503 0.000000 0.000000
							CHANNELS 3 Xrotation Yrotation Zrotation
							JOINT newVegas:LeftHand
							{
								OFFSET 27.849251 0.000000 0.000000
								CHANNELS 3 Xrotation Yrotation Zrotation
								JOINT newVegas:LeftHandThumb1
								{
									OFFSET 4.487587 -3.305161 6.305391
									CHANNELS 3 Xrotation Yrotation Zrotation
									JOINT newVegas:LeftHandThumb2
									{
										OFFSET 5.480453 -3.164139 3.164143
										CHANNELS 3 Xrotation Yrotation Zrotation
										JOINT newVegas:LeftHandThumb3
										{
											OFFSET 5.159721 -2.978973 2.978967
											CHANNELS 3 Xrotation Yrotation Zrotation
											End Site
											{
												OFFSET 2.494507 5.926697 1.738678
											}
										}
									}
								}
								JOINT newVegas:LeftHandIndex1
								{
									OFFSET 18.578728 -0.527832 5.208049
									CHANNELS 3 Xrotation Yrotation Zrotation
									JOINT newVegas:LeftHandIndex2
									{
										OFFSET 3.192009 0.000000 0.000000
										CHANNELS 3 Xrotation Yrotation Zrotation
										JOINT newVegas:LeftHandIndex3
										{
											OFFSET 3.835129 0.000000 0.000000
											CHANNELS 3 Xrotation Yrotation Zrotation
											End Site
											{
												OFFSET -0.034599 3.816971 0.371180
											}
										}
									}
								}
								JOINT newVegas:LeftHandMiddle1
								{
									OFFSET 18.476105 0.000000 0.000000
									CHANNELS 3 Xrotation Yrotation Zrotation
									JOINT newVegas:LeftHandMiddle2
									{
										OFFSET 3.324875 0.000000 0.000000
										CHANNELS 3 Xrotation Yrotation Zrotation
										JOINT newVegas:LeftHandMiddle3
										{
											OFFSET 4.596550 0.000000 0.000000
											CHANNELS 3 Xrotation Yrotation Zrotation
											End Site
											{
												OFFSET 0.057701 4.578827 0.399218
											}
										}
									}
								}
								JOINT newVegas:LeftHandRing1
								{
									OFFSET 17.732719 0.121887 -4.201567
									CHANNELS 3 Xrotation Yrotation Zrotation
									JOINT newVegas:LeftHandRing2
									{
										OFFSET 2.733170 0.000000 0.000000
										CHANNELS 3 Xrotation Yrotation Zrotation
										JOINT newVegas:LeftHandRing3
										{
											OFFSET 3.178268 0.000000 0.000000
											CHANNELS 3 Xrotation Yrotation Zrotation
											End Site
											{
												OFFSET 0.119102 3.170624 0.185394
											}
										}
									}
								}
								JOINT newVegas:LeftHandPinky1
								{
									OFFSET 15.989624 -0.606689 -7.535461
									CHANNELS 3 Xrotation Yrotation Zrotation
									JOINT newVegas:LeftHandPinky2
									{
										OFFSET 2.538986 0.000000 0.000000
										CHANNELS 3 Xrotation Yrotation Zrotation
										JOINT newVegas:LeftHandPinky3
										{
											OFFSET 2.593102 0.000000 0.000000
											CHANNELS 3 Xrotation Yrotation Zrotation
											End Site
											{
												OFFSET -0.150902 2.584198 0.152708
											}
										}
									}
								}
							}
							JOINT newVegas:Left_Sleeve
							{
								OFFSET 0.267448 -0.649796 0.577675
								CHANNELS 3 Xrotation Yrotation Zrotation
								End Site
								{
									OFFSET 0.000000 15.991241 0.000000
								}
							}
							JOINT newVegas:Left_CapeC
							{
								OFFSET 15.715958 -8.608795 -6.935905
								CHANNELS 3 Xrotation Yrotation Zrotation
								JOINT newVegas:Left_CapeC1
								{
									OFFSET 0.000000 -8.688499 0.000000
									CHANNELS 3 Xrotation Yrotation Zrotation
									End Site
									{
										OFFSET 0.000000 8.688499 0.000000
									}
								}
							}
						}
						JOINT newVegas:Left_CapeB
						{
							OFFSET 26.118385 -8.608795 -7.079235
							CHANNELS 3 Xrotation Yrotation Zrotation
							JOINT newVegas:Left_CapeB1
							{
								OFFSET 0.000000 -8.688499 0.000000
								CHANNELS 3 Xrotation Yrotation Zrotation
								End Site
								{
									OFFSET 0.000000 8.688499 0.000000
								}
							}
						}
						JOINT newVegas:Left_CapeA
						{
							OFFSET 5.115639 -8.608795 -10.395809
							CHANNELS 3 Xrotation Yrotation Zrotation
							JOINT newVegas:Left_CapeA1
							{
								OFFSET 0.000000 -8.688499 0.000000
								CHANNELS 3 Xrotation Yrotation Zrotation
								End Site
								{
									OFFSET 0.000000 8.688499 0.000000
								}
							}
						}
					}
				}
				JOINT newVegas:RightShoulder
				{
					OFFSET -15.263000 10.923401 -0.547700
					CHANNELS 3 Xrotation Yrotation Zrotation
					JOINT newVegas:RightArm
					{
						OFFSET -25.438599 -2.830597 -13.032500
						CHANNELS 3 Xrotation Yrotation Zrotation
						JOINT newVegas:RightForeArm
						{
							OFFSET -29.960503 0.000000 0.000000
							CHANNELS 3 Xrotation Yrotation Zrotation
							JOINT newVegas:RightHand
							{
								OFFSET -27.849251 0.000000 0.000000
								CHANNELS 3 Xrotation Yrotation Zrotation
								JOINT newVegas:RightHandThumb1
								{
									OFFSET -4.487587 -3.305161 6.305391
									CHANNELS 3 Xrotation Yrotation Zrotation
									JOINT newVegas:RightHandThumb2
									{
										OFFSET -5.480453 -3.164139 3.164143
										CHANNELS 3 Xrotation Yrotation Zrotation
										JOINT newVegas:RightHandThumb3
										{
											OFFSET -5.159721 -2.978973 2.978967
											CHANNELS 3 Xrotation Yrotation Zrotation
											End Site
											{
												OFFSET -2.494507 5.926697 1.738678
											}
										}
									}
								}
								JOINT newVegas:RightHandIndex1
								{
									OFFSET -18.578728 -0.527832 5.208049
									CHANNELS 3 Xrotation Yrotation Zrotation
									JOINT newVegas:RightHandIndex2
									{
										OFFSET -3.192009 0.000000 0.000000
										CHANNELS 3 Xrotation Yrotation Zrotation
										JOINT newVegas:RightHandIndex3
										{
											OFFSET -3.835129 0.000000 0.000000
											CHANNELS 3 Xrotation Yrotation Zrotation
											End Site
											{
												OFFSET 0.034599 3.816971 0.371180
											}
										}
									}
								}
								JOINT newVegas:RightHandMiddle1
								{
									OFFSET -18.476105 0.000000 0.000000
									CHANNELS 3 Xrotation Yrotation Zrotation
									JOINT newVegas:RightHandMiddle2
									{
										OFFSET -3.324875 0.000000 0.000000
										CHANNELS 3 Xrotation Yrotation Zrotation
										JOINT newVegas:RightHandMiddle3
										{
											OFFSET -4.596550 0.000000 0.000000
											CHANNELS 3 Xrotation Yrotation Zrotation
											End Site
											{
												OFFSET -0.057701 4.578827 0.399218
											}
										}
									}
								}
								JOINT newVegas:RightHandRing1
								{
									OFFSET -17.732719 0.121887 -4.201567
									CHANNELS 3 Xrotation Yrotation Zrotation
									JOINT newVegas:RightHandRing2
									{
										OFFSET -2.733170 0.000000 0.000000
										CHANNELS 3 Xrotation Yrotation Zrotation
										JOINT newVegas:RightHandRing3
										{
											OFFSET -3.178268 0.000000 0.000000
											CHANNELS 3 Xrotation Yrotation Zrotation
											End Site
											{
												OFFSET -0.119102 3.170624 0.185394
											}
										}
									}
								}
								JOINT newVegas:RightHandPinky1
								{
									OFFSET -15.989624 -0.606689 -7.535461
									CHANNELS 3 Xrotation Yrotation Zrotation
									JOINT newVegas:RightHandPinky2
									{
										OFFSET -2.538986 0.000000 0.000000
										CHANNELS 3 Xrotation Yrotation Zrotation
										JOINT newVegas:RightHandPinky3
										{
											OFFSET -2.593102 0.000000 0.000000
											CHANNELS 3 Xrotation Yrotation Zrotation
											End Site
											{
												OFFSET 0.150902 2.584198 0.152708
											}
										}
									}
								}
							}
							JOINT newVegas:Right_CapeC
							{
								OFFSET -15.715958 -8.608795 -6.935905
								CHANNELS 3 Xrotation Yrotation Zrotation
								JOINT newVegas:Right_CapeC1
								{
									OFFSET 0.000000 -8.688499 0.000000
									CHANNELS 3 Xrotation Yrotation Zrotation
									End Site
									{
										OFFSET 0.000000 8.688499 0.000000
									}
								}
							}
							JOINT newVegas:Right_Sleeve
							{
								OFFSET -0.267448 -0.649994 0.577675
								CHANNELS 3 Xrotation Yrotation Zrotation
								End Site
								{
									OFFSET 0.000000 15.991302 0.000000
								}
							}
						}
						JOINT newVegas:Right_CapeA
						{
							OFFSET -5.115540 -8.608795 -10.395824
							CHANNELS 3 Xrotation Yrotation Zrotation
							JOINT newVegas:Right_CapeA1
							{
								OFFSET 0.000000 -8.688499 0.000000
								CHANNELS 3 Xrotation Yrotation Zrotation
								End Site
								{
									OFFSET 0.000000 8.688499 0.000000
								}
							}
						}
						JOINT newVegas:Right_CapeB
						{
							OFFSET -26.118187 -8.608795 -7.079266
							CHANNELS 3 Xrotation Yrotation Zrotation
							JOINT newVegas:Right_CapeB1
							{
								OFFSET 0.000000 -8.688499 0.000000
								CHANNELS 3 Xrotation Yrotation Zrotation
								End Site
								{
									OFFSET 0.000000 8.688499 0.000000
								}
							}
						}
					}
				}
				JOINT newVegas:Left_Collar
				{
					OFFSET 18.625099 8.655502 8.828100
					CHANNELS 3 Xrotation Yrotation Zrotation
					JOINT newVegas:Left_Collar1
					{
						OFFSET 14.783401 10.540405 -1.259500
						CHANNELS 3 Xrotation Yrotation Zrotation
						End Site
						{
							OFFSET 0.000000 18.199875 0.000000
						}
					}
				}
				JOINT newVegas:Collar_Back
				{
					OFFSET 0.000000 15.630707 -20.132601
					CHANNELS 3 Xrotation Yrotation Zrotation
					End Site
					{
						OFFSET 0.000000 22.523010 0.000000
					}
				}
				JOINT newVegas:Left_Peck
				{
					OFFSET 17.239599 -5.132599 25.482599
					CHANNELS 3 Xrotation Yrotation Zrotation
					End Site
					{
						OFFSET 0.000000 22.523010 0.000000
					}
				}
				JOINT newVegas:Right_Peck
				{
					OFFSET -17.239599 -5.132202 25.482599
					CHANNELS 3 Xrotation Yrotation Zrotation
					End Site
					{
						OFFSET 0.000000 22.523010 0.000000
					}
				}
				JOINT newVegas:Right_Collar
				{
					OFFSET -18.625099 8.655792 8.828100
					CHANNELS 3 Xrotation Yrotation Zrotation
					JOINT newVegas:Right_Collar1
					{
						OFFSET -14.783401 10.539993 -1.259500
						CHANNELS 3 Xrotation Yrotation Zrotation
						End Site
						{
							OFFSET 0.000000 18.199631 0.000000
						}
					}
				}
			}
		}
		JOINT newVegas:Belly
		{
			OFFSET 0.000000 -6.540398 9.014299
			CHANNELS 3 Xrotation Yrotation Zrotation
			End Site
			{
				OFFSET 0.000000 11.566666 0.000000
			}
		}
	}
	JOINT newVegas:ElvisFacialAnim_Joint
	{
		OFFSET 1.000000 -95.330101 -8.825800
		CHANNELS 3 Xrotation Yrotation Zrotation
		End Site
		{
			OFFSET 0.000000 35.315800 0.000000
		}
	}
}
MOTION
Frames: 4
Frame Time: 0.033333
-0.022001 109.560402 2.853859 -90.645148 -2.031181 1.682784 0.000000 0.000000 0.000000 -11.308445 17.637983 20.050517 13.680117 -0.183897 1.449457 21.359654 29.862110 -28.798058 -0.000000 0.000002 -0.000000 -0.000000 -0.000001 -0.000000 -14.204288 -16.411210 -21.800278 14.709644 -4.365372 -4.593201 31.078358 -30.031375 33.664148 0.000000 0.000001 -0.000001 -0.000001 -0.000001 -0.000001 0.819611 -0.042696 -0.496785 1.036834 0.275065 0.206020 2.779058 0.078624 -0.500408 -1.733771 1.726224 -3.958139 -1.733748 1.726223 -3.958138 -0.000000 -0.000000 0.000000 -1.733780 1.726231 -3.958140 -1.733701 1.726226 -3.958140 -0.000000 -0.000001 0.000001 -0.000000 -0.000000 0.000000 -1.284142 -12.300299 2.873462 24.079105 -25.227317 -64.774215 0.000172 -108.707836 0.000177 -103.809477 -26.384621 -3.458922 2.125777 -3.541112 14.560203 8.601837 21.114937 -0.258291 0.000002 0.000000 -0.000004 3.331761 -5.367827 27.193063 0.373452 2.059997 -20.548585 -0.000000 -0.000000 0.000001 0.158552 1.283204 12.942393 0.813240 2.979611 -30.526141 -0.000000 0.000001 0.000001 -0.419189 10.158563 3.894378 0.743082 2.857453 -29.148338 0.000000 -0.000001 -0.000000 1.738847 16.948981 -6.051033 0.404166 2.140036 -21.386103 0.000001 -0.000001 -0.000002 -0.000001 0.000001 0.000003 -0.000001 0.000001 0.000003 -0.000001 0.000000 0.000003 -0.000001 0.000000 0.000002 -0.000001 0.000000 0.000001 -0.000001 0.000000 0.000002 -0.000002 -0.000001 0.000001 0.480887 4.498793 3.203395 -4.324201 2.271639 83.610333 -0.000028 129.570820 0.000014 -0.047216 -5.734975 64.762337 -1.120898 -3.665705 -6.555861 8.244843 -30.620783 -3.274787 0.000002 -0.000002 -0.000001 4.540606 -8.344338 48.387406 6.575566 -4.244516 114.349067 -0.000001 -0.000000 0.000003 2.375480 -6.542188 44.640204 7.222572 -3.888155 123.454822 -0.000000 -0.000000 0.000000 2.745577 -6.923848 44.442282 7.225015 -3.886574 123.490285 0.000001 -0.000001 -0.000002 -10.268021 -14.528502 47.436299 6.314124 -4.353036 110.862938 -0.000001 0.000002 -0.000002 0.000000 -0.000001 0.000001 0.000000 -0.000001 0.000000 0.000000 -0.000001 0.000000 -0.000000 0.000000 0.000000 -0.000000 0.000000 0.000000 -0.000000 0.000000 0.000000 -0.000000 -0.000000 0.000000 0.000000 0.000000 -0.000000 0.000000 0.000000 -0.000000 0.000000 0.000000 -0.000000 0.000000 0.000000 -0.000000 0.000000 0.000000 -0.000000 0.000000 0.000000 -0.000000 0.000000 0.000000 -0.000000 0.000000 0.000000 -0.000000 0.000000 0.000000 0.000000 
-0.015667 109.560448 2.853897 -90.646903 -2.025096 1.690226 0.000000 0.000000 0.000000 -11.280474 17.656555 20.029313 13.617382 -0.200928 1.449534 21.391785 29.859125 -28.790163 0.000000 0.000001 -0.000000 0.000001 0.000001 -0.000001 -14.211643 -16.402578 -21.813567 14.719515 -4.399975 -4.592902 31.126723 -30.029412 33.665395 0.000000 0.000001 -0.000000 0.000000 -0.000000 -0.000000 0.824128 -0.031499 -0.500748 1.043490 0.297046 0.194663 2.796918 0.078630 -0.500681 -1.735656 1.726426 -3.954009 -1.735653 1.726427 -3.954008 0.000000 0.000000 0.000000 -1.735659 1.726421 -3.954011 -1.735566 1.726439 -3.954014 -0.000000 -0.000000 0.000001 0.000000 0.000000 -0.000000 -1.233208 -12.372218 3.018044 24.039320 -25.220615 -64.775342 0.000142 -108.659000 0.000127 -103.757533 -26.461683 -3.471605 2.048263 -3.722183 14.921561 8.601837 21.114937 -0.258293 -0.000000 -0.000004 -0.000001 3.267999 -5.320095 26.839836 0.374424 2.062593 -20.575448 0.000000 -0.000001 0.000000 0.153940 1.308559 12.679240 0.812858 2.978964 -30.518713 -0.000000 0.000000 0.000001 -0.388081 10.134974 3.682551 0.734685 2.842344 -28.979034 -0.000001 -0.000000 -0.000002 1.686871 16.944118 -5.839868 0.369758 2.050147 -20.445589 0.000001 -0.000005 0.000001 -0.000000 -0.000000 -0.000001 -0.000000 -0.000000 -0.000001 -0.000001 -0.000001 -0.000001 -0.000001 0.000001 0.000001 -0.000001 0.000000 0.000000 -0.000001 0.000001 0.000001 -0.000002 0.000002 0.000001 0.480887 4.498794 3.203395 -4.324201 2.271638 83.610333 -0.000027 129.570833 0.000014 -0.047216 -5.734976 64.762337 -1.120900 -3.665704 -6.555864 8.244840 -30.620790 -3.274790 -0.000003 -0.000003 0.000001 4.540605 -8.344336 48.387403 6.575564 -4.244516 114.349074 -0.000002 -0.000003 -0.000000 2.375479 -6.542187 44.640207 7.222571 -3.888153 123.454822 -0.000001 -0.000001 0.000001 2.745575 -6.923849 44.442289 7.225014 -3.886573 123.490285 -0.000001 -0.000001 -0.000000 -10.268021 -14.528507 47.436299 6.314127 -4.353032 110.862931 0.000000 0.000002 -0.000002 0.000000 -0.000002 -0.000000 -0.000000 -0.000004 -0.000000 0.000000 -0.000002 -0.000000 0.000000 0.000000 0.000000 0.000000 0.000000 0.000000 0.000000 0.000000 0.000000 0.000000 -0.000000 0.000000 0.000000 -0.000000 -0.000000 0.000000 -0.000000 -0.000000 0.000000 -0.000000 -0.000000 0.000000 -0.000000 -0.000000 0.000000 -0.000000 -0.000000 0.000000 -0.000000 -0.000000 0.000000 -0.000000 -0.000000 0.000000 0.000000 -0.000000 0.000000 0.000000 0.000000 
-0.010050 109.560165 2.853455 -90.649834 -2.020844 1.699223 0.000000 -0.000000 0.000000 -11.244660 17.674025 20.002991 13.544593 -0.202900 1.449549 21.426208 29.856584 -28.776280 0.000001 -0.000000 0.000000 -0.000001 -0.000000 0.000001 -14.218866 -16.390905 -21.826510 14.728719 -4.450379 -4.592605 31.190697 -30.026475 33.665418 0.000000 0.000002 -0.000001 -0.000000 0.000002 -0.000002 0.832481 -0.020118 -0.510448 1.054131 0.323513 0.178182 2.809481 0.078700 -0.500955 -1.737210 1.725746 -3.947747 -1.737209 1.725747 -3.947745 -0.000000 0.000000 0.000000 -1.737221 1.725747 -3.947752 -1.737268 1.725746 -3.947741 0.000000 -0.000000 0.000001 -0.000000 0.000000 0.000000 -1.186271 -12.431168 3.147469 24.053992 -25.221752 -64.680881 0.000328 -108.562947 0.000326 -103.613341 -26.668334 -3.512649 1.986916 -3.861277 15.202522 8.601834 21.114941 -0.258293 -0.000001 0.000001 -0.000001 3.210735 -5.276458 26.520438 0.375301 2.064964 -20.600207 -0.000001 -0.000001 0.000000 0.150315 1.329030 12.465093 0.811435 2.976618 -30.492085 0.000000 0.000002 0.000001 -0.363249 10.111129 3.513910 0.732130 2.837752 -28.927702 -0.000000 0.000001 -0.000001 1.710411 16.874476 -5.972868 0.368522 2.046831 -20.411264 0.000001 0.000000 -0.000003 0.000001 0.000000 0.000001 0.000001 0.000000 0.000001 0.000001 -0.000000 0.000001 -0.000001 -0.000003 0.000000 -0.000000 -0.000003 0.000000 -0.000001 -0.000003 0.000000 -0.000002 -0.000002 0.000000 0.480887 4.498794 3.203395 -4.324200 2.271639 83.610333 -0.000026 129.570833 0.000015 -0.047215 -5.734972 64.762337 -1.120904 -3.665708 -6.555859 8.244837 -30.620790 -3.274792 0.000001 -0.000002 0.000003 4.540606 -8.344337 48.387406 6.575562 -4.244519 114.349074 -0.000007 0.000003 -0.000003 2.375484 -6.542187 44.640204 7.222577 -3.888154 123.454809 -0.000007 -0.000001 0.000003 2.745579 -6.923848 44.442292 7.225013 -3.886573 123.490285 0.000003 0.000001 -0.000002 -10.268023 -14.528504 47.436302 6.314124 -4.353033 110.862938 0.000000 0.000002 -0.000002 0.000000 0.000003 0.000000 0.000000 -0.000003 -0.000000 0.000000 0.000002 0.000000 0.000001 0.000000 -0.000000 0.000001 0.000000 -0.000000 0.000001 0.000000 -0.000000 0.000001 -0.000000 -0.000000 0.000001 0.000000 -0.000000 0.000001 0.000000 -0.000000 0.000001 0.000000 -0.000000 0.000001 0.000000 -0.000000 0.000001 0.000000 -0.000000 0.000001 0.000000 -0.000000 0.000001 0.000000 -0.000000 0.000000 0.000000 0.000000 0.000000 -0.000000 0.000000 
-0.005178 109.559601 2.852966 -90.653406 -2.017322 1.708859 0.000000 -0.000000 0.000000 -11.203028 17.692729 19.974700 13.461598 -0.203227 1.449506 21.466503 29.854262 -28.762838 0.000001 0.000001 0.000000 -0.000000 -0.000000 0.000001 -14.228271 -16.375170 -21.840235 14.739523 -4.506501 -4.592392 31.268340 -30.022448 33.664691 -0.000001 0.000001 -0.000000 0.000000 -0.000000 -0.000001 0.841113 -0.008846 -0.521782 1.066017 0.351805 0.157950 2.815451 0.078831 -0.501230 -1.740430 1.723715 -3.939430 -1.740455 1.723715 -3.939430 0.000000 -0.000000 0.000000 -1.740398 1.723720 -3.939429 -1.740471 1.723699 -3.939427 -0.000000 0.000000 0.000001 0.000000 -0.000000 0.000000 -1.144714 -12.477552 3.258183 24.121682 -25.230446 -64.496247 -0.000002 -108.418885 0.000001 -103.393901 -26.969308 -3.578336 1.937771 -3.961038 15.411434 8.601834 21.114937 -0.258297 -0.000000 -0.000001 -0.000004 3.154722 -5.233106 26.205706 0.376217 2.067360 -20.625274 0.000001 0.000001 0.000001 0.147189 1.346888 12.276631 0.810415 2.974844 -30.471851 0.000000 -0.000002 0.000000 -0.344492 10.092922 3.385551 0.730447 2.834699 -28.893787 0.000000 0.000001 -0.000001 1.725740 16.828406 -6.060628 0.366785 2.042153 -20.362440 -0.000000 -0.000002 -0.000000 -0.000001 -0.000000 -0.000001 -0.000001 -0.000000 -0.000001 -0.000001 -0.000001 -0.000001 -0.000001 0.000003 -0.000000 -0.000001 0.000002 -0.000000 -0.000001 0.000003 -0.000000 -0.000003 0.000003 -0.000000 0.480887 4.498793 3.203395 -4.324203 2.271638 83.610333 -0.000027 129.570820 0.000014 -0.047216 -5.734976 64.762331 -1.120900 -3.665705 -6.555856 8.244836 -30.620786 -3.274792 -0.000000 -0.000001 0.000001 4.540607 -8.344336 48.387406 6.575562 -4.244516 114.349074 0.000003 0.000003 -0.000003 2.375482 -6.542186 44.640211 7.222576 -3.888154 123.454822 -0.000007 0.000002 0.000001 2.745578 -6.923847 44.442289 7.225015 -3.886572 123.490285 0.000004 0.000001 -0.000001 -10.268023 -14.528502 47.436299 6.314124 -4.353029 110.862938 -0.000001 0.000005 -0.000003 0.000000 0.000002 0.000000 0.000000 0.000000 -0.000000 0.000000 0.000002 -0.000000 -0.000000 -0.000001 0.000000 -0.000000 -0.000001 0.000000 -0.000000 -0.000001 0.000000 -0.000000 -0.000001 0.000000 0.000000 0.000000 -0.000000 0.000000 0.000000 -0.000000 0.000000 0.000000 -0.000000 0.000000 0.000000 -0.000000 0.000000 0.000000 -0.000000 0.000000 0.000000 -0.000000 0.000000 0.000000 -0.000000 -0.000000 0.000000 -0.000000 0.000000 -0.000000 0.000000 
